Coordinates
version=1
nRows=5
nColumns=42
inDegrees=yes

Units are S.I. units (second, meters, Newtons, ...)
If the header above contains a line with 'inDegrees', this indicates whether rotational values are in degrees (yes) or radians (no).

endheader
time	pelvis_tilt	pelvis_list	pelvis_rotation	pelvis_tx	pelvis_ty	pelvis_tz	hip_flexion_r	hip_adduction_r	hip_rotation_r	knee_angle_r	knee_angle_r_beta	ankle_angle_r	subtalar_angle_r	mtp_angle_r	hip_flexion_l	hip_adduction_l	hip_rotation_l	knee_angle_l	knee_angle_l_beta	ankle_angle_l	subtalar_angle_l	mtp_angle_l	lumbar_extension	lumbar_bending	lumbar_rotation	sh_tx_r	sh_ty_r	sh_tz_r	sh_plane_elev_r	sh_elev_r	sh_axial_rot_r	elbow_flex_r	pro_sup_r	sh_tx_l	sh_ty_l	sh_tz_l	sh_plane_elev_l	sh_elev_l	sh_axial_rot_l	elbow_flex_l	pro_sup_l
      2.23728810	     -1.03409290	      0.83336015	      1.05053497	      0.23414336	      0.94779872	     -0.01668174	     -0.19023529	     -4.48744129	     -4.58903896	      2.79290915	      0.04874546	      1.05879406	     -4.45666985	     -7.49999974	     -0.36938051	     -1.16605757	     -6.58046848	      1.50256223	      0.02622466	      4.77574110	      7.71597511	     -7.49999974	     -0.39070818	     -1.77240032	     -1.45208576	     -0.01085168	     -0.01155031	     -0.00588913	     75.66468621	    108.29886199	    -36.87835002	     19.40601161	     35.26799341	     -0.01086567	     -0.00464164	     -0.00494255	     85.12732022	    112.85075933	    -24.64855097	      6.96724618	     11.27896830
      2.25423730	     -1.01151612	      0.83524366	      1.17567878	      0.23388433	      0.95086098	     -0.01764952	     -0.30016824	     -4.47069776	     -4.69305620	      2.80435005	      0.04894514	      1.13572486	     -4.37062817	     -7.49999975	     -0.41738713	     -1.16362341	     -6.56531893	      1.40799157	      0.02457409	      4.88813905	      7.94985250	     -7.49999975	     -0.31120322	     -1.76612757	     -1.31372031	     -0.01090097	     -0.01190072	     -0.00583092	     76.11534733	    109.90516654	    -36.01937078	     17.97864273	     34.76271184	     -0.01024962	     -0.00462700	     -0.00488789	     85.34651756	    113.92609823	    -24.61247154	      6.87492242	     11.35195362
      2.27118640	     -0.93491832	      0.81542838	      1.23888969	      0.23346557	      0.94891578	     -0.01881718	     -0.46033730	     -4.47358225	     -4.59769859	      2.74109587	      0.04784115	      1.17245425	     -4.51767724	     -7.49999977	     -0.53046900	     -1.14540316	     -6.51204642	      1.32727078	      0.02316525	      5.05574748	      8.15430838	     -7.49999977	     -0.33845259	     -1.62368627	     -1.24526936	     -0.01092065	     -0.01231450	     -0.00572172	     77.27170285	    111.74023493	    -34.17219679	     15.57209712	     34.92025783	     -0.00993699	     -0.00450052	     -0.00484662	     85.29350522	    115.02037811	    -25.26432924	      6.89806334	     12.96571210
      2.28813560	     -0.94121816	      0.78570258	      1.27299262	      0.23194948	      0.94870583	     -0.01659593	     -0.50158721	     -4.41200343	     -4.55922004	      2.65775965	      0.04638666	      1.26909770	     -4.39623572	     -7.49999980	     -0.55273076	     -1.15521653	     -6.47065932	      1.24857296	      0.02179171	      5.26839677	      8.44125210	     -7.49999980	     -0.26027150	     -1.51151488	     -1.75744492	     -0.00955949	     -0.01248732	     -0.00571543	     78.53824856	    113.10434560	    -32.86284120	     14.42430908	     33.06629276	     -0.01075598	     -0.00434805	     -0.00482782	     84.61774048	    115.99962879	    -25.43278742	      6.89420757	     12.16598789
      2.30508470	     -0.88795046	      0.72268675	      1.33996894	      0.23304985	      0.95097226	     -0.01910823	     -0.63234834	     -4.37459407	     -4.54581902	      2.58371695	      0.04509437	      1.32748346	     -4.22234708	     -7.49999980	     -0.61520900	     -1.18119022	     -6.44192551	      1.17858859	      0.02057025	      5.46180807	      8.80828564	     -7.49999980	     -0.26291344	     -1.38937264	     -1.97380272	     -0.00949960	     -0.01238606	     -0.00578334	     78.51862327	    113.99940519	    -34.42565263	     14.93622411	     32.98959011	     -0.01087026	     -0.00436689	     -0.00491864	     84.29146513	    117.12028570	    -27.87644298	      7.59660075	     14.92794460
